<?xml version="1.0" standalone="no"?>
<!DOCTYPE svg PUBLIC "-//W3C//DTD SVG 20010904//EN"
 "http://www.w3.org/TR/2001/REC-SVG-20010904/DTD/svg10.dtd">
<svg version="1.0" xmlns="http://www.w3.org/2000/svg"
 width="324.000000pt" height="57.000000pt" viewBox="0 0 324.000000 57.000000"
 preserveAspectRatio="xMidYMid meet">

<g transform="translate(0.000000,57.000000) scale(0.100000,-0.100000)"
fill="#000000" stroke="none">
<path d="M10 550 c0 -16 88 -163 255 -425 17 -27 42 -67 54 -87 17 -28 29 -38
48 -38 24 0 25 2 19 37 -3 21 -6 149 -6 286 l0 247 -185 0 c-177 0 -185 -1
-185 -20z m355 -240 c12 -19 -5 -28 -30 -17 -14 7 -25 15 -25 20 0 11 48 9 55
-3z"/>
<path d="M10 453 c0 -19 50 -103 205 -343 85 -133 69 -120 -32 25 -147 212
-168 238 -171 218 -2 -12 34 -78 86 -159 107 -168 104 -164 99 -164 -3 0 -44
54 -92 120 -47 66 -88 120 -91 120 -15 0 4 -39 64 -131 109 -167 109 -172 2
-29 -83 111 -94 93 -14 -24 l56 -81 -56 60 c-55 60 -76 61 -32 2 38 -53 41
-64 8 -33 l-32 30 0 -32 0 -32 101 0 c77 0 98 3 93 13 -6 9 -4 9 8 -1 10 -8
36 -12 68 -10 l51 3 -152 225 c-173 257 -169 251 -169 223z"/>
<path d="M530 428 c-1 -7 -11 -59 -24 -115 l-23 -103 23 0 c25 0 25 0 49 113
l17 77 39 0 c46 0 47 -8 24 -105 -20 -81 -19 -87 7 -83 20 3 25 15 45 103 12
55 22 106 22 113 1 9 -23 12 -89 12 -65 0 -90 -3 -90 -12z"/>
<path d="M2341 418 c-5 -13 -12 -39 -16 -58 -9 -43 -42 -110 -54 -110 -5 0
-12 -15 -16 -32 -4 -18 -9 -41 -11 -50 -4 -13 0 -18 15 -18 13 0 21 9 26 30 7
30 7 30 77 30 l70 0 -4 -30 c-4 -24 -1 -30 13 -30 12 0 21 12 28 38 13 46 14
62 2 62 -5 0 0 37 10 83 10 45 19 88 19 95 0 8 -22 12 -75 12 -69 0 -76 -2
-84 -22z m99 -36 c0 -10 -5 -44 -11 -75 l-12 -57 -44 0 -44 0 15 28 c8 16 20
50 27 75 10 42 14 47 40 47 21 0 29 -5 29 -18z"/>
<path d="M753 355 l-28 -24 25 -1 c14 0 32 4 40 10 9 5 19 5 27 -2 19 -16 6
-28 -31 -28 -48 0 -68 -19 -64 -60 l3 -35 65 -2 c60 -1 65 0 66 20 0 12 4 43
8 68 6 36 4 49 -9 62 -24 25 -69 21 -102 -8z m49 -97 c-16 -16 -25 -19 -33
-11 -16 16 -2 33 29 33 l26 0 -22 -22z"/>
<path d="M964 373 l-41 -4 -17 -87 c-10 -48 -20 -98 -23 -110 -5 -20 -2 -23
18 -20 18 2 25 11 29 33 5 26 9 30 35 27 66 -7 105 29 105 98 0 31 -31 71 -52
68 -7 -1 -32 -3 -54 -5z m61 -52 c7 -23 -9 -67 -27 -74 -18 -6 -48 11 -48 28
0 7 4 25 10 39 12 32 55 36 65 7z"/>
<path d="M1362 371 c-7 -4 -24 -6 -37 -3 -21 4 -24 -1 -35 -55 -6 -32 -14 -69
-17 -81 -5 -20 -2 -23 17 -20 19 2 26 13 35 53 14 64 21 75 47 75 16 0 19 -5
15 -22 -4 -13 -9 -42 -13 -65 -6 -39 -5 -43 14 -43 17 0 23 10 32 54 11 55 42
97 55 76 7 -11 -1 -88 -12 -116 -3 -10 3 -14 20 -14 23 0 26 5 38 70 11 63 11
73 -4 88 -15 14 -21 14 -53 3 -26 -9 -39 -10 -47 -2 -13 13 -37 14 -55 2z"/>
<path d="M1579 351 c-54 -54 -31 -141 37 -141 42 0 74 15 74 35 0 18 -23 19
-49 3 -15 -9 -23 -9 -35 1 -28 23 -18 31 39 31 l55 0 0 34 c0 66 -70 87 -121
37z m81 -26 c0 -10 -10 -15 -30 -15 -29 0 -38 9 -23 23 13 13 53 7 53 -8z"/>
<path d="M1788 373 c-36 -4 -37 -5 -48 -61 -7 -31 -14 -68 -17 -80 -5 -20 -2
-23 18 -20 19 2 26 12 35 54 14 64 20 74 46 74 16 0 19 -5 15 -22 -4 -13 -9
-42 -13 -65 -6 -39 -5 -43 14 -43 21 0 25 8 37 70 9 45 33 74 50 60 12 -10 8
-50 -11 -112 -4 -14 0 -18 19 -18 23 0 26 6 38 70 10 56 10 72 -1 85 -16 19
-40 19 -67 0 -18 -13 -22 -13 -33 0 -7 8 -20 14 -29 13 -9 -1 -33 -3 -53 -5z"/>
<path d="M2565 368 c-39 -22 -59 -76 -44 -116 13 -35 26 -42 75 -42 53 0 85
30 65 62 -9 15 -10 23 -2 31 18 18 13 55 -8 67 -25 13 -61 12 -86 -2z m65 -44
c0 -10 -12 -14 -37 -14 l-38 1 23 19 c24 20 52 17 52 -6z m-15 -64 c0 -23 -49
-20 -53 3 -3 15 2 18 25 15 17 -2 28 -9 28 -18z"/>
<path d="M2725 357 c-37 -31 -45 -97 -16 -126 29 -29 84 -28 114 2 l22 22 -23
3 c-13 2 -30 -2 -37 -8 -18 -15 -45 -6 -45 15 0 12 12 15 55 15 51 0 55 2 55
24 0 13 -9 35 -21 50 -26 33 -68 34 -104 3z m79 -32 c4 -12 -3 -15 -29 -15
-26 0 -33 3 -29 15 4 8 16 15 29 15 13 0 25 -7 29 -15z"/>
<path d="M2966 373 c-4 -4 -21 -6 -39 -5 l-33 2 -18 -92 c-10 -50 -21 -100
-24 -110 -3 -14 1 -18 21 -18 21 0 25 6 31 42 5 31 10 38 18 30 21 -21 67 -14
93 14 45 48 27 144 -27 144 -8 0 -18 -3 -22 -7z m27 -73 c-1 -36 -25 -62 -49
-53 -20 8 -26 38 -12 67 9 21 18 26 37 24 23 -3 26 -7 24 -38z"/>
<path d="M1100 305 c-16 -85 -9 -94 70 -93 l59 1 16 68 c19 88 19 91 -7 87
-18 -2 -24 -12 -31 -48 -10 -48 -31 -80 -55 -80 -12 0 -13 10 -8 50 4 28 9 57
12 65 5 11 -1 15 -19 15 -23 0 -26 -6 -37 -65z"/>
<path d="M3071 304 c-15 -85 -9 -93 70 -92 52 1 60 4 64 22 30 134 30 136 5
136 -13 0 -22 -9 -26 -27 -12 -56 -17 -68 -32 -85 -8 -10 -22 -18 -30 -18 -12
0 -13 10 -8 50 4 28 9 57 12 65 5 11 -1 15 -18 15 -22 0 -26 -6 -37 -66z"/>
<path d="M2090 289 c0 -18 5 -20 42 -17 31 2 44 8 46 21 3 14 -4 17 -42 17
-40 0 -46 -3 -46 -21z"/>
</g>
</svg>
