<svg version="1.1" xmlns="http://www.w3.org/2000/svg" viewBox="-2460.908940362068 -1079.2960083007813 10038.509310006233 2438.400048828125"><desc>Created with Snap</desc><defs></defs><g><g transform="matrix(20.2892,0,0,20.2892,-2255.155,-873.5421)"><g><path d="M78.4,66.5c-5.5,4.8-9.9,15.2-9.9,15.2s-6.9-11.4-12.9-15.3c-9.5-6.1-13.6-6.2-13.6-6.2V65c0,0,7.8,1.2,11.7,4.6   c8.2,7.1,14.8,18.5,14.8,18.5S74.4,75,80.1,70.5C88.1,64.3,95,65,95,65v-4.8C95,60.1,85.1,60.7,78.4,66.5z" fill="#eecaaf" style=""></path><path d="M42,80c-6.4-3.6-17.8-4.3-17.8-4.3s8.7-10.1,10.5-17C37.5,47.9,36.2,44,36.2,44l-4.6,1.6c0,0,1.3,7.7-0.6,12.4   c-4.1,9.9-13,19.8-13,19.8s14.6,1.3,20.7,5.1c8.6,5.4,10.2,12,10.2,12l4.6-1.6C53.5,93.4,49.7,84.4,42,80z" fill="#eecaaf" style=""></path><path d="M35.3,36.8c11.3-0.9,14.6-3.4,14.6-3.4l-3-3.8c0,0-6.9,3.7-12.1,3.4c-10.9-0.6-23.3-5.6-23.3-5.6s3.5,14,1.8,20.9   C10.9,58.2,5,61.8,5,61.8l3,3.8c0,0,7.5-6.5,9.1-15.1c1.3-7.1-1.7-18-1.7-18S28,37.4,35.3,36.8z" fill="#eecaaf" style=""></path><path d="M37.4,17.8c7.3-1.1,16.7-7.4,16.7-7.4s-0.6,13.2,2.4,19.8c4.6,10.2,8,12.5,8,12.5l2.7-4c0,0-5.9-5.2-7.3-10.2   C56.9,18.2,57.7,5,57.7,5s-12.3,7.8-19.5,8.5c-10.2,1-15.6-3.3-15.6-3.3l-2.7,4.1C19.9,14.2,28.6,19.1,37.4,17.8z" fill="#eecaaf" style=""></path><path d="M65,60.5c0,0,3.1-7.2,7.4-10.1c9-6.1,21.9-9.7,21.9-9.7s-11.5-8.9-14.5-15.4c-4.2-9.1-1.9-15.6-1.9-15.6l-4.8-1.2   c0,0-1.9,9.6,2.2,17.4c3.4,6.4,12.5,13.2,12.5,13.2S75,42.9,69.6,47.8c-8.3,7.6-9.4,11.5-9.4,11.5L65,60.5z" fill="#eecaaf" style=""></path></g><desc>Created with Snap</desc><defs></defs></g><g><g transform="matrix(1.024,0,0,-1.024,0,0)"><path d="M238 29L233 0L-20 0L-15 29Q2 37 23 43Q44 49 73 53L198 646Q178 650 159 656Q140 663 121 671L128 700L788 700L782 671Q762 661 739 655Q717 650 695 646L569 53Q608 48 645 29L640 0L387 0L392 29Q404 36 424 42Q444 48 473 53L599 648L294 648L169 53Q207 45 238 29ZM898 50Q925 50 952 75Q979 101 1003 137Q1027 173 1046 212Q1065 251 1076 277L1108 448Q1094 458 1081 462Q1068 466 1045 466Q999 466 961 437Q924 409 897 364Q871 319 856 264Q842 209 842 156Q842 105 854 77Q867 50 898 50ZM1060 196L1056 196Q1043 160 1023 123Q1004 86 978 56Q953 26 922 7Q891 -12 856 -12Q752 -12 752 139Q752 209 772 275Q792 342 830 394Q868 446 922 477Q977 509 1046 509Q1071 509 1086 504Q1101 500 1122 491Q1162 512 1206 512L1116 55L1189 55L1189 30Q1169 14 1141 4Q1113 -6 1086 -6Q1057 -6 1044 6Q1032 19 1032 33Q1032 51 1039 92Q1046 133 1060 196ZM1374 8L1341 -146Q1376 -152 1411 -171L1411 -200L1254 -200L1245 -191L1288 8L1381 442L1320 451L1320 476Q1353 490 1389 501Q1426 512 1458 512L1478 500L1437 324L1441 324Q1459 364 1480 398Q1502 432 1527 457Q1552 483 1581 497Q1610 512 1643 512Q1665 512 1685 503Q1705 495 1720 477Q1735 460 1743 434Q1752 408 1752 374Q1752 297 1729 227Q1706 157 1666 104Q1627 51 1574 19Q1521 -12 1460 -12Q1443 -12 1431 -11Q1419 -10 1410 -8Q1401 -5 1392 -1Q1384 3 1374 8ZM1596 450Q1567 450 1541 427Q1515 405 1492 373Q1470 341 1452 305Q1434 270 1423 243L1384 54Q1398 42 1413 36Q1429 31 1463 31Q1503 31 1538 60Q1574 90 1600 136Q1627 182 1642 238Q1658 295 1658 350Q1658 398 1641 424Q1625 450 1596 450ZM2200 55L2274 55L2274 30Q2254 14 2225 4Q2197 -6 2170 -6Q2141 -6 2128 6Q2116 18 2116 32Q2116 50 2121 92Q2126 135 2143 196L2139 196Q2126 168 2106 132Q2087 96 2060 64Q2033 32 1998 10Q1964 -12 1922 -12Q1887 -12 1863 12Q1839 37 1839 82Q1839 104 1846 147Q1853 190 1863 241Q1873 292 1884 345Q1896 399 1905 442L1844 451L1844 476Q1860 482 1878 488Q1897 494 1915 499Q1934 504 1951 507Q1968 511 1982 512L2004 500Q1988 425 1971 357Q1955 290 1941 215Q1936 191 1930 161Q1925 132 1925 97Q1925 76 1936 63Q1948 50 1963 50Q1985 50 2007 63Q2029 76 2048 97Q2068 118 2085 143Q2103 169 2117 194Q2131 219 2140 240Q2150 262 2155 275L2199 500L2282 500L2200 55ZM2914 118L2961 300Q2967 324 2972 350Q2978 376 2979 393Q2978 419 2970 434Q2963 450 2940 450Q2916 450 2891 431Q2866 412 2843 383Q2821 354 2802 320Q2784 286 2772 256L2711 0L2631 0L2694 281Q2701 312 2706 340Q2711 369 2711 400Q2711 423 2703 436Q2695 450 2675 450Q2655 450 2631 431Q2607 412 2584 383Q2561 354 2541 320Q2522 286 2510 255L2457 0L2371 0L2464 442L2403 451L2403 476Q2436 493 2474 502Q2513 512 2541 512L2562 500L2518 323L2522 323Q2534 351 2555 384Q2577 417 2605 445Q2633 474 2665 493Q2697 512 2729 512Q2741 512 2753 508Q2765 504 2774 493Q2783 483 2789 465Q2795 447 2795 419Q2795 397 2790 372Q2786 347 2780 323Q2795 357 2818 390Q2841 424 2868 451Q2895 478 2925 495Q2956 512 2988 512Q3026 512 3045 488Q3065 464 3065 422Q3065 390 3059 361Q3053 333 3046 300L2981 56L3055 56L3055 30Q3035 14 3006 4Q2977 -6 2951 -6Q2922 -6 2911 7Q2900 20 2900 38Q2900 67 2914 118ZM3504 108L3520 89Q3511 70 3494 52Q3477 34 3454 19Q3431 5 3402 -4Q3373 -12 3340 -12Q3257 -12 3212 35Q3168 83 3168 167Q3168 238 3188 301Q3208 364 3244 411Q3280 458 3331 485Q3383 512 3446 512Q3494 512 3528 487Q3563 463 3563 415Q3563 344 3492 303Q3422 262 3265 250Q3261 233 3259 217Q3258 201 3258 186Q3258 126 3288 88Q3319 50 3378 50Q3397 50 3415 56Q3434 62 3450 71Q3467 80 3480 90Q3494 100 3504 108ZM3415 469Q3372 468 3335 428Q3298 389 3272 293Q3369 296 3423 326Q3477 357 3477 411Q3477 432 3464 450Q3452 468 3415 469ZM4168 118L4215 300Q4221 324 4226 350Q4232 376 4233 393Q4232 419 4224 434Q4217 450 4194 450Q4170 450 4145 431Q4120 412 4097 383Q4075 354 4056 320Q4038 286 4026 256L3965 0L3885 0L3948 281Q3955 312 3960 340Q3965 369 3965 400Q3965 423 3957 436Q3949 450 3929 450Q3909 450 3885 431Q3861 412 3838 383Q3815 354 3795 320Q3776 286 3764 255L3711 0L3625 0L3718 442L3657 451L3657 476Q3690 493 3728 502Q3767 512 3795 512L3816 500L3772 323L3776 323Q3788 351 3809 384Q3831 417 3859 445Q3887 474 3919 493Q3951 512 3983 512Q3995 512 4007 508Q4019 504 4028 493Q4037 483 4043 465Q4049 447 4049 419Q4049 397 4044 372Q4040 347 4034 323Q4049 357 4072 390Q4095 424 4122 451Q4149 478 4179 495Q4210 512 4242 512Q4280 512 4299 488Q4319 464 4319 422Q4319 390 4313 361Q4307 333 4300 300L4235 56L4309 56L4309 30Q4289 14 4260 4Q4231 -6 4205 -6Q4176 -6 4165 7Q4154 20 4154 38Q4154 67 4168 118ZM4654 168Q4654 229 4674 289Q4695 350 4733 398Q4772 446 4826 476Q4881 506 4949 506Q4967 506 4985 502Q5003 498 5014 490Q5014 521 5008 558Q5003 595 4989 627Q4976 659 4952 680Q4928 702 4892 702Q4855 702 4831 695Q4808 688 4785 676L4772 695Q4783 707 4801 717Q4819 728 4840 736Q4862 745 4885 749Q4909 754 4932 754Q4971 754 5002 737Q5034 720 5056 685Q5079 650 5091 596Q5104 542 5104 467Q5104 365 5079 277Q5055 190 5014 125Q4973 61 4917 24Q4862 -12 4801 -12Q4729 -12 4691 35Q4654 83 4654 168ZM4939 463Q4884 462 4847 432Q4810 402 4787 357Q4764 312 4754 260Q4744 208 4744 163Q4744 140 4747 117Q4750 94 4759 74Q4768 55 4784 43Q4800 31 4826 31Q4859 31 4892 62Q4926 94 4953 149Q4980 205 4997 280Q5014 355 5014 442Q4992 454 4975 458Q4958 462 4939 463ZM5562 416Q5562 368 5526 334Q5490 301 5424 277Q5458 275 5480 265Q5503 256 5517 241Q5531 227 5537 210Q5543 194 5543 178Q5543 145 5527 111Q5511 78 5482 50Q5454 23 5414 5Q5374 -12 5326 -12Q5283 -12 5252 1Q5221 14 5200 36Q5180 59 5170 89Q5161 119 5161 154Q5161 206 5172 254Q5183 302 5201 342Q5220 383 5245 415Q5271 447 5300 468Q5359 512 5444 512Q5492 512 5527 487Q5562 463 5562 416ZM5453 161Q5452 202 5430 221Q5409 241 5360 250Q5338 245 5312 242Q5286 239 5259 237Q5256 223 5253 204Q5251 186 5251 165Q5251 108 5275 69Q5299 31 5351 31Q5366 31 5384 40Q5402 49 5417 66Q5432 83 5442 107Q5452 131 5453 161ZM5426 469Q5403 468 5380 458Q5357 448 5336 425Q5315 402 5296 365Q5278 328 5263 275Q5310 275 5348 286Q5387 297 5414 316Q5442 335 5457 360Q5472 385 5472 412Q5472 432 5462 450Q5452 468 5426 469ZM5984 108L6000 89Q5991 70 5974 52Q5957 34 5934 19Q5911 5 5882 -4Q5853 -12 5820 -12Q5737 -12 5692 35Q5648 83 5648 167Q5648 238 5668 301Q5688 364 5724 411Q5760 458 5811 485Q5863 512 5926 512Q5974 512 6008 487Q6043 463 6043 415Q6043 344 5972 303Q5902 262 5745 250Q5741 233 5739 217Q5738 201 5738 186Q5738 126 5768 88Q5799 50 5858 50Q5877 50 5895 56Q5914 62 5930 71Q5947 80 5960 90Q5974 100 5984 108ZM5895 469Q5852 468 5815 428Q5778 389 5752 293Q5849 296 5903 326Q5957 357 5957 411Q5957 432 5944 450Q5932 468 5895 469ZM6192 8L6159 -146Q6194 -152 6229 -171L6229 -200L6072 -200L6063 -191L6106 8L6199 442L6138 451L6138 476Q6171 490 6207 501Q6244 512 6276 512L6296 500L6255 324L6259 324Q6277 364 6298 398Q6320 432 6345 457Q6370 483 6399 497Q6428 512 6461 512Q6483 512 6503 503Q6523 495 6538 477Q6553 460 6561 434Q6570 408 6570 374Q6570 297 6547 227Q6524 157 6484 104Q6445 51 6392 19Q6339 -12 6278 -12Q6261 -12 6249 -11Q6237 -10 6228 -8Q6219 -5 6210 -1Q6202 3 6192 8ZM6414 450Q6385 450 6359 427Q6333 405 6310 373Q6288 341 6270 305Q6252 270 6241 243L6202 54Q6216 42 6231 36Q6247 31 6281 31Q6321 31 6356 60Q6392 90 6418 136Q6445 182 6460 238Q6476 295 6476 350Q6476 398 6459 424Q6443 450 6414 450ZM7018 55L7092 55L7092 30Q7072 14 7043 4Q7015 -6 6988 -6Q6959 -6 6946 6Q6934 18 6934 32Q6934 50 6939 92Q6944 135 6961 196L6957 196Q6944 168 6924 132Q6905 96 6878 64Q6851 32 6816 10Q6782 -12 6740 -12Q6705 -12 6681 12Q6657 37 6657 82Q6657 104 6664 147Q6671 190 6681 241Q6691 292 6702 345Q6714 399 6723 442L6662 451L6662 476Q6678 482 6696 488Q6715 494 6733 499Q6752 504 6769 507Q6786 511 6800 512L6822 500Q6806 425 6789 357Q6773 290 6759 215Q6754 191 6748 161Q6743 132 6743 97Q6743 76 6754 63Q6766 50 6781 50Q6803 50 6825 63Q6847 76 6866 97Q6886 118 6903 143Q6921 169 6935 194Q6949 219 6958 240Q6968 262 6973 275L7017 500L7100 500L7018 55Z" fill="#1d8ac0" style=""></path></g></g><g transform="matrix(0.75,0,0,0.75,-83.456,894.464)"><g transform="matrix(1.024,0,0,-1.024,0,0)"><path d="M277 0L82 0L82 486L269 486Q309 486 342 479Q375 472 398 457Q422 443 435 419Q448 396 448 363Q448 322 426 296Q405 270 367 259L367 256Q388 251 406 242Q425 233 439 219Q453 205 461 185Q469 165 469 139Q469 103 454 77Q440 51 414 33Q389 16 354 8Q319 0 277 0ZM163 427L163 282L255 282Q316 282 342 301Q368 321 368 355Q368 389 343 408Q318 427 261 427L163 427ZM163 223L163 59L268 59Q328 59 357 81Q387 103 387 144Q387 181 356 202Q325 223 263 223L163 223ZM608 0L522 0L681 254L534 486L623 486L688 379Q699 359 711 338Q723 318 736 298L740 298Q751 318 762 338Q773 359 784 379L843 486L929 486L782 245L940 0L851 0L780 113Q767 135 754 157Q741 179 727 200L723 200Q710 179 698 157Q686 136 674 113L608 0ZM1225 -12Q1180 -12 1139 5Q1099 22 1068 54Q1037 87 1018 134Q1000 182 1000 242Q1000 303 1018 350Q1037 398 1068 431Q1099 464 1139 481Q1180 498 1225 498Q1270 498 1310 481Q1351 464 1382 431Q1413 398 1431 350Q1450 303 1450 242Q1450 182 1431 134Q1413 87 1382 54Q1351 22 1310 5Q1270 -12 1225 -12ZM1225 56Q1256 56 1282 69Q1308 83 1326 107Q1345 132 1355 166Q1365 200 1365 242Q1365 284 1355 318Q1345 353 1326 378Q1308 403 1282 416Q1256 430 1225 430Q1194 430 1168 416Q1142 403 1123 378Q1105 353 1095 318Q1085 284 1085 242Q1085 200 1095 166Q1105 132 1123 107Q1142 83 1168 69Q1194 56 1225 56ZM1927 0L1595 0L1595 -172L1524 -172L1515 15L1515 67L1539 67Q1549 73 1558 83Q1568 94 1576 116Q1584 138 1592 175Q1600 212 1607 271L1633 486L1935 486L1935 67L2006 67L2006 15L1998 -172L1927 -172L1927 0ZM1698 419L1679 255Q1671 183 1657 138Q1644 93 1627 67L1853 67L1853 419L1698 419ZM2192 0L2110 0L2110 486L2192 486L2192 289L2426 289L2426 486L2508 486L2508 0L2426 0L2426 216L2192 216L2192 0ZM2823 0L2672 0L2672 486L2754 486L2754 307L2823 307Q2866 307 2901 298Q2937 289 2962 270Q2988 252 3002 223Q3016 195 3016 155Q3016 114 3002 85Q2988 56 2962 37Q2937 18 2901 9Q2866 0 2823 0ZM2754 243L2754 66L2814 66Q2935 66 2935 155Q2935 201 2905 222Q2876 243 2814 243L2754 243ZM3182 0L3100 0L3100 486L3182 486L3182 0ZM3543 -12Q3494 -12 3451 5Q3409 23 3377 55Q3346 88 3328 135Q3310 182 3310 242Q3310 302 3328 349Q3347 397 3377 430Q3408 463 3447 480Q3486 498 3528 498Q3574 498 3610 482Q3647 466 3671 436Q3696 406 3709 364Q3722 322 3722 270Q3722 257 3721 244Q3721 232 3719 223L3391 223Q3396 145 3439 99Q3483 54 3553 54Q3588 54 3617 64Q3647 75 3674 92L3703 38Q3671 18 3632 3Q3593 -12 3543 -12ZM3390 282L3650 282Q3650 356 3618 394Q3587 433 3530 433Q3504 433 3480 423Q3457 413 3438 393Q3419 374 3406 346Q3394 318 3390 282ZM4391 0L4059 0L4059 -172L3988 -172L3979 15L3979 67L4003 67Q4013 73 4022 83Q4032 94 4040 116Q4048 138 4056 175Q4064 212 4071 271L4097 486L4399 486L4399 67L4470 67L4470 15L4462 -172L4391 -172L4391 0ZM4162 419L4143 255Q4135 183 4121 138Q4108 93 4091 67L4317 67L4317 419L4162 419ZM4769 0L4574 0L4574 486L4761 486Q4801 486 4834 479Q4867 472 4890 457Q4914 443 4927 419Q4940 396 4940 363Q4940 322 4918 296Q4897 270 4859 259L4859 256Q4880 251 4898 242Q4917 233 4931 219Q4945 205 4953 185Q4961 165 4961 139Q4961 103 4946 77Q4932 51 4906 33Q4881 16 4846 8Q4811 0 4769 0ZM4655 427L4655 282L4747 282Q4808 282 4834 301Q4860 321 4860 355Q4860 389 4835 408Q4810 427 4753 427L4655 427ZM4655 223L4655 59L4760 59Q4820 59 4849 81Q4879 103 4879 144Q4879 181 4848 202Q4817 223 4755 223L4655 223ZM5279 -12Q5230 -12 5187 5Q5145 23 5113 55Q5082 88 5064 135Q5046 182 5046 242Q5046 302 5064 349Q5083 397 5113 430Q5144 463 5183 480Q5222 498 5264 498Q5310 498 5346 482Q5383 466 5407 436Q5432 406 5445 364Q5458 322 5458 270Q5458 257 5457 244Q5457 232 5455 223L5127 223Q5132 145 5175 99Q5219 54 5289 54Q5324 54 5353 64Q5383 75 5410 92L5439 38Q5407 18 5368 3Q5329 -12 5279 -12ZM5126 282L5386 282Q5386 356 5354 394Q5323 433 5266 433Q5240 433 5216 423Q5193 413 5174 393Q5155 374 5142 346Q5130 318 5126 282ZM5660 -205L5578 -205L5578 486L5646 486L5653 430L5656 430Q5689 458 5728 478Q5768 498 5811 498Q5858 498 5894 480Q5930 463 5954 430Q5978 398 5990 352Q6003 307 6003 250Q6003 188 5986 139Q5969 91 5940 57Q5911 23 5873 5Q5835 -12 5793 -12Q5759 -12 5725 3Q5692 18 5658 44L5660 -41L5660 -205ZM5779 57Q5809 57 5834 70Q5860 84 5878 108Q5897 133 5907 169Q5918 205 5918 250Q5918 290 5911 323Q5904 356 5888 379Q5873 403 5848 416Q5824 429 5790 429Q5759 429 5727 412Q5696 395 5660 363L5660 108Q5693 80 5724 68Q5755 57 5779 57ZM6209 0L6133 0L6133 486L6213 486L6213 284Q6213 245 6210 198Q6208 152 6205 105L6209 105Q6223 128 6241 157Q6260 186 6273 209L6457 486L6534 486L6534 0L6454 0L6454 202Q6454 241 6456 287Q6459 334 6462 382L6458 382Q6444 359 6425 329Q6407 300 6394 278L6209 0Z" fill="#1d8ac0" style=""></path></g></g></g></svg>